<svg id="Capa_1" enable-background="new 0 0 512 512" height="512" viewBox="0 0 512 512" width="512" xmlns="http://www.w3.org/2000/svg"><g><g><g clip-rule="evenodd" fill-rule="evenodd"><path d="m233.529 7.5 4.381 46.661c5.705-1.327 11.743-2.029 18.119-2.029s12.414.702 18.119 2.03l4.381-46.662z" fill="#aae79a"/><path d="m235.789 31.571 2.121 22.59c5.705-1.327 11.743-2.029 18.119-2.029s12.414.702 18.119 2.03l2.121-22.59c-6.413-1.264-13.156-1.939-20.24-1.939-7.085-.001-13.828.674-20.24 1.938z" fill="#6ad34d"/><path d="m167.285 140.876-13.653 59.736c-13.929 60.946-41.507 84.104-54.214 140.296-15.186 67.154 20.903 163.592 156.611 163.592s171.797-96.437 156.611-163.591c-12.707-56.192-40.285-79.35-54.214-140.296l-13.653-59.736c-10.262-44.901-38.164-88.744-88.744-88.744s-78.482 43.843-88.744 88.743zm43.868 10.027c5.058-22.131 17.701-53.771 44.876-53.771 27.174 0 39.817 31.639 44.875 53.77 13.111 57.364 20.622 93.142 47.708 147.506 19.502 39.144 35.391 83.233 6.153 122.685-38.485 51.932-158.988 51.931-197.473 0-29.237-39.453-13.349-83.541 6.153-122.685 27.086-54.363 34.597-90.142 47.708-147.505z" fill="#aae79a"/><path d="m256.029 97.132c-27.174 0-39.817 31.639-44.876 53.771-13.111 57.363-20.622 93.142-47.708 147.506-19.502 39.144-35.391 83.233-6.153 122.685 38.485 51.931 158.988 51.932 197.473 0 29.237-39.453 13.349-83.541-6.153-122.685-27.086-54.365-34.597-90.143-47.708-147.506-5.058-22.132-17.701-53.771-44.875-53.771z" fill="#f3a451"/><path d="m167.285 140.876-13.653 59.736c-13.929 60.946-41.507 84.104-54.214 140.296-23.965 105.973 70.467 167.133 156.611 163.592-110.944-4.447-148.868-98.334-134.111-163.591 12.707-56.192 40.285-79.35 54.214-140.296l13.653-59.736c9.474-41.453 33.985-82.004 77.494-87.986-56.086-7.712-88.793 38.975-99.994 87.985z" fill="#6ad34d"/><path d="m256.029 97.132c-27.174 0-39.817 31.639-44.876 53.771-13.111 57.363-20.622 93.142-47.708 147.506-19.502 39.144-35.391 83.233-6.153 122.685 21.061 28.419 66.684 41.285 109.986 38.6-35.826-2.222-70.062-15.088-87.487-38.6-29.237-39.453-13.349-83.541 6.153-122.685 27.085-54.364 34.597-90.143 47.708-147.506 7.88-34.477 13.805-47.771 22.377-53.771z" fill="#c38340"/></g><g><path d="m278.53 172.131h-15v-15h15zm-15.001-30h-15v-15h15z" fill="#fff"/></g></g><g><path d="m367.537 462.083 9.797 11.359c3.999-3.449 7.833-7.185 11.396-11.104l-11.1-10.09c-3.156 3.472-6.552 6.781-10.093 9.835z"/><path d="m419.955 339.254c-6.439-28.476-16.741-49.057-26.703-68.96-10.141-20.259-20.626-41.208-27.516-71.353l-13.652-59.737c-10.872-47.57-36.19-79.721-69.888-90.537l4.57-48.667h-61.475l4.57 48.668c-33.698 10.816-59.016 42.966-69.888 90.537l-13.652 59.737c-6.89 30.144-17.375 51.093-27.516 71.353-9.962 19.903-20.264 40.484-26.703 68.96-9.319 41.212.356 84.887 25.883 116.831 36.93 46.213 95.453 55.914 138.044 55.914 43.695 0 80.223-9.705 108.568-28.845l-8.395-12.432c-25.82 17.436-59.524 26.277-100.173 26.277-56.357 0-100.04-17.386-126.325-50.279-22.707-28.414-31.294-67.352-22.971-104.158 6.038-26.699 15.484-45.573 25.485-65.555 10.538-21.052 21.434-42.821 28.726-74.725l13.652-59.737c5.506-24.088 15.323-44.438 28.391-58.848 12.704-14.008 27.997-21.956 45.542-23.698v14.631h15v-14.63c17.545 1.742 32.838 9.689 45.542 23.698 13.067 14.411 22.885 34.76 28.391 58.848l13.652 59.737c7.292 31.903 18.188 53.672 28.726 74.725 10.001 19.982 19.447 38.855 25.485 65.555 7.707 34.085.665 70.958-18.837 98.635l12.262 8.64c21.906-31.089 29.833-72.429 21.205-110.585zm-178.189-324.254h28.525l-2.852 30.384c-3.727-.484-7.528-.752-11.41-.752s-7.683.268-11.41.752z"/><path d="m212.09 180.464-14.623-3.342-7.278 31.846c-7.41 32.42-19.032 57.144-33.456 86.096-9.609 19.288-16.431 35.068-20.739 54.116-6.05 26.758-.341 55.311 15.273 76.38 20.091 27.11 56.317 41.44 104.762 41.44s84.672-14.33 104.762-41.44c15.614-21.069 21.323-49.622 15.273-76.379-4.309-19.048-11.13-34.829-20.739-54.116-14.423-28.949-26.045-53.67-33.456-86.096l-13.653-59.736c-8.656-37.876-27.677-59.6-52.187-59.6-24.508 0-43.53 21.723-52.188 59.6l-3.031 13.266 14.623 3.342 3.031-13.265c3.295-14.415 13.551-47.942 37.564-47.942 24.015 0 34.27 33.527 37.563 47.941l13.653 59.736c7.78 34.043 19.778 59.587 34.653 89.444 9.112 18.289 15.559 33.155 19.534 50.735 5.023 22.218.16 46.795-12.693 64.14-11.956 16.135-37.747 35.37-92.709 35.37-54.961 0-80.752-19.235-92.711-35.371-12.854-17.345-17.717-41.922-12.693-64.14 3.976-17.58 10.422-32.447 19.534-50.736 14.876-29.86 26.874-55.406 34.653-89.443z"/><path d="m218.53 397.249h15v15h-15z"/><path d="m218.529 277.249h15v15h-15z"/><path d="m188.53 367.249h15v15h-15z"/><path d="m218.53 337.249h15v15h-15z"/><path d="m248.53 367.249h15v15h-15z"/><path d="m248.529 247.249h15v15h-15z"/><path d="m308.529 367.249h15v15h-15z"/><path d="m278.529 277.249h15v15h-15z"/><path d="m278.529 397.249h15v15h-15z"/><path d="m248.529 307.249h15v15h-15z"/><path d="m278.529 337.249h15v15h-15z"/></g></g></svg>